<svg xmlns="http://www.w3.org/2000/svg" width="16" height="16" viewBox="0 0 16 16">
  <path d="M11.93 7.25h-.55c-.05 0-.15-.19-.4-.46-.37-.4-.78-.91-1.07-1.19a7.13 7.13 0 01-1.73-2.24c-.24-.51-.26-.74-.75-.74a.78.78 0 00-.67.81c0 .14.07.63.1.8a7.54 7.54 0 001 2.2H4.12a.88.88 0 00-.65.28.84.84 0 00-.23.66.91.91 0 00.93.85h.16a.82.82 0 00-.55.24.77.77 0 00-.21.54.81.81 0 00.74.8.8.8 0 00.33 1.42.76.76 0 00-.09.55.87.87 0 00.85.63h2.29a3.8 3.8 0 00.89-.11l1.42-.4h1.9c1.02-.04 1.29-4.64.03-4.64z" fill="none" stroke="#364153 " stroke-width="1.5" stroke-linecap="round" stroke-linejoin="round" />
</svg>